<svg id="Layer_1" data-name="Layer 1" xmlns="http://www.w3.org/2000/svg" xmlns:xlink="http://www.w3.org/1999/xlink" viewBox="0 0 208.74 170.71"><defs><style>.cls-1{fill:#1e6192;}.cls-2{fill:#378daf;}.cls-3{fill:url(#linear-gradient);}.cls-4{fill:#6e7172;}.cls-5{fill:#f7941f;stroke:#fff;stroke-linecap:round;stroke-linejoin:round;stroke-width:3px;}.cls-6{fill:#fff;}</style><linearGradient id="linear-gradient" x1="101.91" y1="49.93" x2="342.03" y2="49.93" gradientUnits="userSpaceOnUse"><stop offset="0" stop-color="#fff"/><stop offset="1"/></linearGradient></defs><title>journade</title><path class="cls-1" d="M56,139.61h4v7.29a11.52,11.52,0,0,1-.4,3.49,4,4,0,0,1-1.58,2,5.29,5.29,0,0,1-3.06.83,6.86,6.86,0,0,1-3.06-.55,3.85,3.85,0,0,1-1.67-1.6,6.41,6.41,0,0,1-.7-2.61L53.4,148a4.21,4.21,0,0,0,.15,1.31,1.38,1.38,0,0,0,.48.7,1,1,0,0,0,.65.17,1.08,1.08,0,0,0,1-.51,3.44,3.44,0,0,0,.32-1.74Z"/><path class="cls-1" d="M62.19,146.33A7.07,7.07,0,0,1,64,141.21a6.56,6.56,0,0,1,4.94-1.83,6.68,6.68,0,0,1,5,1.8,6.92,6.92,0,0,1,1.76,5,8.48,8.48,0,0,1-.77,3.85,5.53,5.53,0,0,1-2.22,2.35,7.23,7.23,0,0,1-3.62.83,8.14,8.14,0,0,1-3.64-.72,5.54,5.54,0,0,1-2.34-2.29A7.75,7.75,0,0,1,62.19,146.33Zm4,0a4.56,4.56,0,0,0,.74,2.91,2.71,2.71,0,0,0,4,0,5.11,5.11,0,0,0,.71-3.12,4.24,4.24,0,0,0-.74-2.76,2.5,2.5,0,0,0-2-.88,2.42,2.42,0,0,0-2,.89A4.62,4.62,0,0,0,66.21,146.35Z"/><path class="cls-1" d="M86.31,139.61h4v8a7,7,0,0,1-.36,2.25,4.83,4.83,0,0,1-1.12,1.84,4.49,4.49,0,0,1-1.61,1.11,7.91,7.91,0,0,1-2.82.45,15.64,15.64,0,0,1-2.07-.14,5.35,5.35,0,0,1-1.88-.54,4.92,4.92,0,0,1-1.38-1.15,4.45,4.45,0,0,1-.86-1.55,8.54,8.54,0,0,1-.37-2.27v-8h4v8.18a2.37,2.37,0,0,0,.6,1.72,2.13,2.13,0,0,0,1.63.61,2.18,2.18,0,0,0,1.63-.6,2.4,2.4,0,0,0,.59-1.73Z"/><path class="cls-1" d="M93,153V139.61h6.7a9.48,9.48,0,0,1,2.85.33,3,3,0,0,1,1.59,1.22,4.25,4.25,0,0,1,.14,4.1,3.62,3.62,0,0,1-1.27,1.31,4.77,4.77,0,0,1-1.41.54,3.7,3.7,0,0,1,1,.49,4.38,4.38,0,0,1,.64.7,4.76,4.76,0,0,1,.56.84l2,3.88H101.3l-2.15-4.09a3.23,3.23,0,0,0-.73-1,1.64,1.64,0,0,0-1-.31h-.35V153Zm4-8h1.69a5.41,5.41,0,0,0,1.07-.19,1,1,0,0,0,.65-.42,1.23,1.23,0,0,0,.25-.77,1.26,1.26,0,0,0-.39-1,2.38,2.38,0,0,0-1.5-.35H97.08Z"/><path class="cls-1" d="M107.15,139.61h3.76l4.9,7.42v-7.42h3.79V153h-3.79l-4.88-7.36V153h-3.78Z"/><path class="cls-1" d="M130.09,150.81h-4.56l-.64,2.21h-4.1l4.89-13.41h4.38L135,153h-4.21Zm-.83-2.9-1.44-4.82-1.42,4.82Z"/><path class="cls-1" d="M136.29,139.61h6a6.9,6.9,0,0,1,2.85.5,4.65,4.65,0,0,1,1.8,1.41,5.88,5.88,0,0,1,1,2.15,10,10,0,0,1,.32,2.6,9.45,9.45,0,0,1-.47,3.34,5.55,5.55,0,0,1-1.32,2,4.32,4.32,0,0,1-1.81,1.07,9.2,9.2,0,0,1-2.4.36h-6Zm4,3V150h1a4.11,4.11,0,0,0,1.8-.29,2,2,0,0,0,.83-1,6.52,6.52,0,0,0,.3-2.33,4.59,4.59,0,0,0-.67-2.91,2.8,2.8,0,0,0-2.24-.79Z"/><path class="cls-1" d="M150.37,139.61h10.77v2.87h-6.75v2.13h6.26v2.73h-6.26V150h7v3h-11Z"/><path class="cls-2" d="M178.94,38,156.1,100.59C105.87,56.42,32.48,73.45,32.48,73.45L77.37,18.33l74.8,75.58Z"/><path class="cls-3" d="M101.91,38.2,149,86.05s-16.3-31.95-11.53-72.24Z"/><path class="cls-4" d="M144.32,46.55,174,30.25l-21.2,55.8S143.79,70.47,144.32,46.55Z"/><path class="cls-1" d="M156.1,100.59,73.42,118.33,32.48,73.45S105.87,56.42,156.1,100.59Z"/><polygon class="cls-1" points="75.93 122.13 156.1 104.1 79.7 126.76 75.93 122.13"/><g id="Layer_1-2" data-name="Layer_1"><g id="_1421344023328" data-name=" 1421344023328"><path class="cls-5" d="M98.54,92.66a15.53,15.53,0,1,1,5.32-21.32,15.55,15.55,0,0,1-5.32,21.32Z"/><path class="cls-6" d="M97,82.62c1.68-1.24,1.36-3.14.36-5.19l2.47-1.49-.9-1.5-2.41,1.44-.74-1.19,2.42-1.46-.9-1.5-2.47,1.48c-.21-.32-.4-.63-.59-.95h0L93,70.18l-1.61,1s.69,1.1.66,1.09a.91.91,0,0,1-.14,1.26L89,75.2a1.19,1.19,0,0,1,.08.16L89,75.21l-4,2.37a.62.62,0,0,1-.84-.27s-.66-1.09-.66-1.09l-2,.78,1.18,2c.22.36.43.73.64,1.08l-2.5,1.5.9,1.51,2.48-1.49c.24.42.47.82.71,1.21l-2.47,1.48.91,1.51,2.5-1.5c1.66,2.44,3.37,3.83,5.88,2.62a3,3,0,0,0,1.81-4A2.72,2.72,0,0,0,97,82.62Zm-6.62,1.11c-1.87,1.12-3.58-2.21-4.19-3.23l3.32-2c.61,1,2.83,4,.87,5.22Zm4.26-3.51c-1.7,1-3.11-1.77-3.62-2.62l3-1.81c.51.85,2.39,3.36.61,4.43Z"/></g></g></svg>